<svg width="121" height="57" viewBox="0 0 121 57" fill="none" xmlns="http://www.w3.org/2000/svg">
<path d="M16.112 32.324L19.266 21.38L16.986 14.122H14.82V13.4H26.6V14.122H24.358L30.02 32.096L34.58 14.122H30.742V13.4H38.342V14.122H35.834L28.842 40.38H25.46L19.836 23.204L14.896 40.38H11.59L2.014 14.122H0.228V13.4H12.578V14.122H9.918L16.112 32.324Z" fill="#231F20"/>
<path d="M77.464 26.548H75.45V39.278H77.92V40H65.57V39.278H68.04V14.122H65.57V13.4H77.046C80.3393 13.4 82.67 13.5773 84.038 13.932C85.4313 14.2613 86.4067 14.6667 86.964 15.148C88.18 16.136 88.788 17.7067 88.788 19.86C88.788 22.0133 88.256 23.5587 87.192 24.496C86.128 25.408 84.5067 25.9527 82.328 26.13V26.244C84.38 26.5227 85.8113 27.1307 86.622 28.068C87.4327 29.0053 87.838 30.576 87.838 32.78V34.794C87.838 36.1113 87.9013 36.998 88.028 37.454C88.18 37.91 88.484 38.138 88.94 38.138C89.396 38.138 89.7507 37.9353 90.004 37.53C90.2827 37.0993 90.536 36.2127 90.764 34.87L91.41 34.946C91.1313 37.0993 90.6373 38.5433 89.928 39.278C89.244 40.0127 87.8633 40.38 85.786 40.38C83.7087 40.38 82.2267 39.8987 81.34 38.936C80.4787 37.948 80.048 36.1113 80.048 33.426V30.652C80.048 29.2333 79.858 28.1947 79.478 27.536C79.1233 26.8773 78.452 26.548 77.464 26.548ZM75.45 14.122V25.826H76.666C78.11 25.826 79.174 25.3827 79.858 24.496C80.5673 23.6093 80.922 22.1653 80.922 20.164V19.062C80.922 17.0607 80.58 15.7433 79.896 15.11C79.2373 14.4513 78.1733 14.122 76.704 14.122H75.45ZM93.1512 13.4H104.741V14.122H102.651V26.13L102.955 26.054L113.671 14.122H110.669V13.4H117.319V14.122H115.039L108.503 21.418L117.623 39.278H119.675V40H107.477V39.278H109.263L102.993 27.156L102.651 27.232V39.278H104.741V40H93.1512V39.278H95.2412V14.122H93.1512V13.4Z" fill="#231F20"/>
<g filter="url(#filter0_d_1141_7102)">
<circle cx="51" cy="27" r="12" fill="#F0F0F0"/>
<circle cx="51" cy="27" r="5.24444" fill="#D80027"/>
</g>
<path d="M21.3 45.6H24.96V45.828H24.3V53.772H24.96V54H21.3V53.772H21.96V45.828H21.3V45.6ZM34.7456 45.828V54H33.0656L28.9496 46.236V53.772H29.6096V54H27.9656V53.772H28.6256V45.828H27.9656V45.6H31.2776L34.4216 51.624V45.828H33.7616V45.6H35.4056V45.828H34.7456Z" fill="black"/>
<path d="M50.112 45.6H54.012V45.828H53.352V51.012C53.352 52.092 53.108 52.88 52.62 53.376C52.132 53.864 51.4 54.108 50.424 54.108C49.776 54.108 49.26 53.984 48.876 53.736C48.5 53.488 48.312 53.14 48.312 52.692C48.312 52.348 48.408 52.08 48.6 51.888C48.792 51.688 49.052 51.588 49.38 51.588C49.716 51.588 49.964 51.672 50.124 51.84C50.292 52.008 50.376 52.212 50.376 52.452C50.376 52.684 50.332 52.92 50.244 53.16H49.776C49.704 53.28 49.668 53.396 49.668 53.508C49.668 53.612 49.72 53.704 49.824 53.784C49.936 53.856 50.08 53.892 50.256 53.892C50.576 53.892 50.78 53.768 50.868 53.52C50.964 53.264 51.012 52.716 51.012 51.876V45.828H50.112V45.6ZM60.9981 53.772L60.1221 51.18H57.7461L56.8221 53.772H57.7221V54H55.8861V53.772H56.4501L59.5101 45.528H60.4941L63.5181 53.772H64.0701V54H60.1461V53.772H60.9981ZM58.9821 47.772L57.8541 50.916H60.0261L58.9821 47.772ZM66.7261 45.6H70.2541C71.4621 45.6 72.3621 45.776 72.9541 46.128C73.5461 46.472 73.8421 47.092 73.8421 47.988C73.8421 48.98 73.4821 49.664 72.7621 50.04C72.0901 50.384 71.1501 50.556 69.9421 50.556H69.8461V53.772H71.3461V54H66.7261V53.772H67.5061V45.828H66.7261V45.6ZM69.8461 45.828V50.328H70.0981C70.5781 50.328 70.9101 50.164 71.0941 49.836C71.2781 49.508 71.3701 48.976 71.3701 48.24V47.664C71.3701 46.984 71.2821 46.508 71.1061 46.236C70.9381 45.964 70.6261 45.828 70.1701 45.828H69.8461ZM80.4113 53.772L79.5353 51.18H77.1593L76.2353 53.772H77.1353V54H75.2993V53.772H75.8633L78.9233 45.528H79.9073L82.9313 53.772H83.4833V54H79.5593V53.772H80.4113ZM78.3953 47.772L77.2673 50.916H79.4393L78.3953 47.772ZM93.0394 45.828V54H91.3594L87.2434 46.236V53.772H87.9034V54H86.2594V53.772H86.9194V45.828H86.2594V45.6H89.5714L92.7154 51.624V45.828H92.0554V45.6H93.6994V45.828H93.0394Z" fill="black"/>
<rect x="17" y="51" width="15" height="2" transform="rotate(-180 17 51)" fill="url(#paint0_linear_1141_7102)"/>
<rect x="103" y="49" width="15" height="2" fill="url(#paint1_linear_1141_7102)"/>
<defs>
<filter id="filter0_d_1141_7102" x="31" y="7" width="40" height="40" filterUnits="userSpaceOnUse" color-interpolation-filters="sRGB">
<feFlood flood-opacity="0" result="BackgroundImageFix"/>
<feColorMatrix in="SourceAlpha" type="matrix" values="0 0 0 0 0 0 0 0 0 0 0 0 0 0 0 0 0 0 127 0" result="hardAlpha"/>
<feOffset/>
<feGaussianBlur stdDeviation="4"/>
<feComposite in2="hardAlpha" operator="out"/>
<feColorMatrix type="matrix" values="0 0 0 0 0 0 0 0 0 0 0 0 0 0 0 0 0 0 0.25 0"/>
<feBlend mode="normal" in2="BackgroundImageFix" result="effect1_dropShadow_1141_7102"/>
<feBlend mode="normal" in="SourceGraphic" in2="effect1_dropShadow_1141_7102" result="shape"/>
</filter>
<linearGradient id="paint0_linear_1141_7102" x1="17" y1="52" x2="32" y2="52" gradientUnits="userSpaceOnUse">
<stop/>
<stop offset="1" stop-color="#666666" stop-opacity="0"/>
</linearGradient>
<linearGradient id="paint1_linear_1141_7102" x1="103" y1="50" x2="118" y2="50" gradientUnits="userSpaceOnUse">
<stop/>
<stop offset="1" stop-color="#666666" stop-opacity="0"/>
</linearGradient>
</defs>
</svg>
